<svg width="36" height="35" viewBox="0 0 36 35" fill="none" xmlns="http://www.w3.org/2000/svg">
<g filter="url(#filter0_d_497_338)">
<path d="M31.8094 1.4541H4.27866C2.99482 1.4541 1.9541 2.49482 1.9541 3.77866V31.3088C1.9541 32.5926 2.99482 33.6333 4.27866 33.6333H31.8088C33.0926 33.6333 34.1333 32.5926 34.1333 31.3088V3.77866C34.1333 2.49482 33.0926 1.4541 31.8088 1.4541H31.8094ZM11.5124 28.8184H6.72414V13.5222H11.5124V28.8184ZM9.11826 11.3419C7.60495 11.3419 6.37831 10.1153 6.37831 8.602C6.37831 7.0887 7.60495 5.86206 9.11826 5.86206C10.6316 5.86206 11.8582 7.0887 11.8582 8.602C11.8582 10.1153 10.6316 11.3419 9.11826 11.3419ZM29.3698 19.578V28.8184H24.5321V20.1917C24.5321 20.1917 24.8318 17.1664 21.9567 17.3373C19.1095 17.2944 19.2453 20.7338 19.2453 20.7338V28.8184H14.5221V13.5222H19.0458V15.6251C20.2659 13.9558 21.5504 13.5222 21.5504 13.5222C21.5504 13.5222 23.3341 12.5283 26.4023 13.6275C29.4705 14.7261 29.3704 19.578 29.3704 19.578H29.3698Z" fill="white"/>
</g>
<defs>
<filter id="filter0_d_497_338" x="0.954102" y="0.454102" width="34.1792" height="34.1792" filterUnits="userSpaceOnUse" color-interpolation-filters="sRGB">
<feFlood flood-opacity="0" result="BackgroundImageFix"/>
<feColorMatrix in="SourceAlpha" type="matrix" values="0 0 0 0 0 0 0 0 0 0 0 0 0 0 0 0 0 0 127 0" result="hardAlpha"/>
<feOffset/>
<feGaussianBlur stdDeviation="0.5"/>
<feComposite in2="hardAlpha" operator="out"/>
<feColorMatrix type="matrix" values="0 0 0 0 0.883333 0 0 0 0 0 0 0 0 0 1 0 0 0 1 0"/>
<feBlend mode="normal" in2="BackgroundImageFix" result="effect1_dropShadow_497_338"/>
<feBlend mode="normal" in="SourceGraphic" in2="effect1_dropShadow_497_338" result="shape"/>
</filter>
</defs>
</svg>
